<svg width="58" height="58" viewBox="0 0 58 58" fill="none" xmlns="http://www.w3.org/2000/svg">
<g filter="url(#filter0_d)">
<path d="M54 25C54 18.3696 51.3661 12.0107 46.6777 7.32233C41.9893 2.63392 35.6304 0 29 0C22.3696 0 16.0107 2.63392 11.3223 7.32233C6.63392 12.0107 4 18.3696 4 25C4 31.6304 6.63392 37.9893 11.3223 42.6777C16.0107 47.3661 22.3696 50 29 50C35.6304 50 41.9893 47.3661 46.6777 42.6777C51.3661 37.9893 54 31.6304 54 25ZM30.5625 35.9375C30.5625 36.3519 30.3979 36.7493 30.1049 37.0424C29.8118 37.3354 29.4144 37.5 29 37.5C28.5856 37.5 28.1882 37.3354 27.8951 37.0424C27.6021 36.7493 27.4375 36.3519 27.4375 35.9375V17.8344L20.7313 24.5438C20.4379 24.8371 20.0399 25.002 19.625 25.002C19.2101 25.002 18.8121 24.8371 18.5187 24.5438C18.2254 24.2504 18.0605 23.8524 18.0605 23.4375C18.0605 23.0226 18.2254 22.6246 18.5187 22.3312L27.8937 12.9562C28.0389 12.8107 28.2113 12.6953 28.4011 12.6165C28.591 12.5378 28.7945 12.4972 29 12.4972C29.2055 12.4972 29.409 12.5378 29.5989 12.6165C29.7887 12.6953 29.9611 12.8107 30.1063 12.9562L39.4813 22.3312C39.7746 22.6246 39.9395 23.0226 39.9395 23.4375C39.9395 23.8524 39.7746 24.2504 39.4813 24.5438C39.1879 24.8371 38.7899 25.002 38.375 25.002C37.9601 25.002 37.5621 24.8371 37.2687 24.5438L30.5625 17.8344V35.9375Z" fill="#FBFBFB"/>
</g>
<defs>
<filter id="filter0_d" x="0" y="0" width="58" height="58" filterUnits="userSpaceOnUse" color-interpolation-filters="sRGB">
<feFlood flood-opacity="0" result="BackgroundImageFix"/>
<feColorMatrix in="SourceAlpha" type="matrix" values="0 0 0 0 0 0 0 0 0 0 0 0 0 0 0 0 0 0 127 0"/>
<feOffset dy="4"/>
<feGaussianBlur stdDeviation="2"/>
<feColorMatrix type="matrix" values="0 0 0 0 0 0 0 0 0 0 0 0 0 0 0 0 0 0 0.25 0"/>
<feBlend mode="normal" in2="BackgroundImageFix" result="effect1_dropShadow"/>
<feBlend mode="normal" in="SourceGraphic" in2="effect1_dropShadow" result="shape"/>
</filter>
</defs>
</svg>
