<svg width="30" height="30" viewBox="0 0 30 30" fill="none" xmlns="http://www.w3.org/2000/svg">
<path fill-rule="evenodd" clip-rule="evenodd" d="M22.5001 15C22.5001 15.2486 22.4013 15.4871 22.2255 15.6629C22.0497 15.8387 21.8112 15.9375 21.5626 15.9375H10.7007L14.7263 19.9612C14.8135 20.0484 14.8826 20.1519 14.9298 20.2658C14.977 20.3797 15.0013 20.5017 15.0013 20.625C15.0013 20.7483 14.977 20.8703 14.9298 20.9842C14.8826 21.0981 14.8135 21.2016 14.7263 21.2887C14.6392 21.3759 14.5357 21.4451 14.4218 21.4922C14.3079 21.5394 14.1859 21.5637 14.0626 21.5637C13.9393 21.5637 13.8173 21.5394 13.7034 21.4922C13.5895 21.4451 13.486 21.3759 13.3988 21.2887L7.77384 15.6637C7.68653 15.5767 7.61726 15.4732 7.57 15.3593C7.52274 15.2454 7.49841 15.1233 7.49841 15C7.49841 14.8767 7.52274 14.7546 7.57 14.6407C7.61726 14.5268 7.68653 14.4233 7.77384 14.3362L13.3988 8.71124C13.5749 8.53521 13.8136 8.43631 14.0626 8.43631C14.3115 8.43631 14.5503 8.53521 14.7263 8.71124C14.9024 8.88728 15.0013 9.12604 15.0013 9.37499C15.0013 9.62395 14.9024 9.86271 14.7263 10.0387L10.7007 14.0625H21.5626C21.8112 14.0625 22.0497 14.1613 22.2255 14.3371C22.4013 14.5129 22.5001 14.7514 22.5001 15Z" fill="#8F3CE2"/>
</svg>
