<svg width="97" height="89" viewBox="0 0 97 89" fill="none" xmlns="http://www.w3.org/2000/svg">
<g filter="url(#filter0_d)">
<ellipse cx="48.5" cy="40.2108" rx="44.5" ry="40.2108" fill="#8F3CE2"/>
<path d="M49 20.495C37.9513 20.495 29 29.4537 29 40.495C29 49.3362 34.73 56.83 42.6713 59.4737C43.675 59.6625 44.0375 59.0437 44.0375 58.5087C44.0375 58.0337 44.0263 56.7775 44.0188 55.11C38.4525 56.315 37.28 52.4212 37.28 52.4212C36.3688 50.1162 35.0538 49.4975 35.0538 49.4975C33.2438 48.2612 35.1975 48.2875 35.1975 48.2875C37.2025 48.4237 38.2575 50.3437 38.2575 50.3437C40.0413 53.4037 42.9375 52.5187 44.0838 52.0037C44.2588 50.715 44.78 49.8287 45.3475 49.335C40.9075 48.8337 36.2387 47.115 36.2387 39.4512C36.2387 37.2625 37.0138 35.48 38.295 34.08C38.0737 33.5787 37.3962 31.5412 38.4713 28.7862C38.4713 28.7862 40.145 28.2525 43.9713 30.8375C45.6011 30.3942 47.2822 30.1668 48.9713 30.1612C50.6712 30.1725 52.37 30.395 53.9712 30.8375C57.775 28.2525 59.4475 28.7862 59.4475 28.7862C60.5212 31.5412 59.8437 33.5775 59.6487 34.08C60.9175 35.48 61.6925 37.2637 61.6925 39.4512C61.6925 47.1325 57.0175 48.8262 52.5725 49.315C53.2675 49.9137 53.9187 51.145 53.9187 53.0137C53.9187 55.6887 53.8938 57.8437 53.8938 58.495C53.8938 59.015 54.2437 59.64 55.2737 59.4387C63.2738 56.8225 68.9975 49.3225 68.9975 40.4937C68.9975 29.4525 60.0462 20.4937 48.9975 20.4937L49 20.495Z" fill="#FBFBFB"/>
</g>
<defs>
<filter id="filter0_d" x="0" y="0" width="97" height="88.4217" filterUnits="userSpaceOnUse" color-interpolation-filters="sRGB">
<feFlood flood-opacity="0" result="BackgroundImageFix"/>
<feColorMatrix in="SourceAlpha" type="matrix" values="0 0 0 0 0 0 0 0 0 0 0 0 0 0 0 0 0 0 127 0"/>
<feOffset dy="4"/>
<feGaussianBlur stdDeviation="2"/>
<feColorMatrix type="matrix" values="0 0 0 0 0 0 0 0 0 0 0 0 0 0 0 0 0 0 0.25 0"/>
<feBlend mode="normal" in2="BackgroundImageFix" result="effect1_dropShadow"/>
<feBlend mode="normal" in="SourceGraphic" in2="effect1_dropShadow" result="shape"/>
</filter>
</defs>
</svg>
