<svg width="97" height="89" viewBox="0 0 97 89" fill="none" xmlns="http://www.w3.org/2000/svg">
<g filter="url(#filter0_d)">
<ellipse cx="48.5" cy="40.2108" rx="44.5" ry="40.2108" fill="#8F3CE2"/>
<path d="M29 22.865C29 21.2825 30.315 20 31.9375 20H66.0625C67.685 20 69 21.2825 69 22.865V57.135C69 58.7175 67.685 60 66.0625 60H31.9375C30.315 60 29 58.7175 29 57.135V22.865ZM41.3575 53.485V35.4225H35.355V53.485H41.3575ZM38.3575 32.955C40.45 32.955 41.7525 31.57 41.7525 29.835C41.715 28.0625 40.4525 26.715 38.3975 26.715C36.3425 26.715 35 28.065 35 29.835C35 31.57 36.3025 32.955 38.3175 32.955H38.3575ZM50.6275 53.485V43.3975C50.6275 42.8575 50.6675 42.3175 50.8275 41.9325C51.26 40.855 52.2475 39.7375 53.9075 39.7375C56.08 39.7375 56.9475 41.3925 56.9475 43.8225V53.485H62.95V43.125C62.95 37.575 59.99 34.995 56.04 34.995C52.855 34.995 51.4275 36.745 50.6275 37.9775V38.04H50.5875C50.6008 38.0191 50.6141 37.9983 50.6275 37.9775V35.4225H44.6275C44.7025 37.1175 44.6275 53.485 44.6275 53.485H50.6275Z" fill="#FBFBFB"/>
</g>
<defs>
<filter id="filter0_d" x="0" y="0" width="97" height="88.4217" filterUnits="userSpaceOnUse" color-interpolation-filters="sRGB">
<feFlood flood-opacity="0" result="BackgroundImageFix"/>
<feColorMatrix in="SourceAlpha" type="matrix" values="0 0 0 0 0 0 0 0 0 0 0 0 0 0 0 0 0 0 127 0"/>
<feOffset dy="4"/>
<feGaussianBlur stdDeviation="2"/>
<feColorMatrix type="matrix" values="0 0 0 0 0 0 0 0 0 0 0 0 0 0 0 0 0 0 0.25 0"/>
<feBlend mode="normal" in2="BackgroundImageFix" result="effect1_dropShadow"/>
<feBlend mode="normal" in="SourceGraphic" in2="effect1_dropShadow" result="shape"/>
</filter>
</defs>
</svg>
