<svg width="16" height="14" viewBox="0 0 16 14" fill="none" xmlns="http://www.w3.org/2000/svg">
<path d="M2.30273 2.46875L4.5293 9.42969L6.75586 2.46875H8.13867V11H7.06641V7.67773L7.16602 4.34961L4.93359 11H4.11328L1.89258 4.37305L1.99219 7.67773V11H0.919922V2.46875H2.30273Z" fill="#8F3CE2"/>
<path d="M11.0625 7.66016V11H9.99023V2.46875H12.709C13.502 2.46875 14.125 2.70703 14.5781 3.18359C15.0312 3.65625 15.2578 4.28711 15.2578 5.07617C15.2578 5.89648 15.041 6.5293 14.6074 6.97461C14.1777 7.41602 13.5703 7.64453 12.7852 7.66016H11.0625ZM11.0625 6.74023H12.709C13.1855 6.74023 13.5508 6.59766 13.8047 6.3125C14.0586 6.02734 14.1855 5.61914 14.1855 5.08789C14.1855 4.57617 14.0547 4.16602 13.793 3.85742C13.5312 3.54883 13.1719 3.39453 12.7148 3.39453H11.0625V6.74023Z" fill="#FBFBFB"/>
</svg>
