<svg width="100" height="142" viewBox="0 0 100 142" fill="none" xmlns="http://www.w3.org/2000/svg">
<path d="M99.8262 27.6429L90.7477 129.346L49.9391 140.659L9.24297 129.362L0.173828 27.6429H99.8262Z" fill="#E44D26"/>
<path d="M50 132.012L82.9754 122.87L90.7332 35.9597H50V132.012Z" fill="#F16529"/>
<path d="M32.3516 60.9109H50V48.4355H18.7176L19.016 51.7824L22.0824 86.1613H50V73.6859H33.4918L32.3516 60.9109Z" fill="#EBEBEB"/>
<path d="M35.1633 92.3993H22.6398L24.3875 111.988L49.9426 119.081L50 119.066V106.086L49.9453 106.1L36.0516 102.349L35.1633 92.3993Z" fill="#EBEBEB"/>
<path d="M9.44531 0H15.7852V6.26367H21.5848V0H27.925V18.968H21.5852V12.6164H15.7855V18.968H9.4457V0H9.44531Z" fill="black"/>
<path d="M36.2617 6.29023H30.6812V0H48.1867V6.29023H42.6027V18.968H36.2629V6.29023H36.2625H36.2617Z" fill="black"/>
<path d="M50.9648 0H57.5754L61.6418 6.66484L65.7043 0H72.3176V18.968H66.0035V9.56641L61.6418 16.3105H61.5324L57.168 9.56641V18.968H50.9648V0Z" fill="black"/>
<path d="M75.4727 0H81.8145V12.6984H90.7301V18.968H75.4723V0H75.4727Z" fill="black"/>
<path d="M49.957 86.1613H65.3191L63.8707 102.341L49.9566 106.096V119.075L75.532 111.987L75.7195 109.88L78.6516 77.0359L78.9558 73.6859H49.957V86.1613Z" fill="white"/>
<path d="M49.957 60.8805V60.9109H80.091L80.341 58.107L80.9098 51.7824L81.2078 48.4355H49.957V60.8808V60.8805Z" fill="white"/>
</svg>
