<svg width="100" height="142" viewBox="0 0 100 142" fill="none" xmlns="http://www.w3.org/2000/svg">
<path d="M49.9391 140.659L9.24297 129.362L0.173828 27.6429H99.8262L90.7477 129.346L49.9391 140.659Z" fill="#264DE4"/>
<path d="M82.9754 122.87L90.7332 35.9597H50V132.012L82.9754 122.87Z" fill="#2965F1"/>
<path d="M20.9644 73.6859L22.0824 86.1613H50V73.6859H20.9644Z" fill="#EBEBEB"/>
<path d="M18.7176 48.4355L19.8516 60.9109H50V48.4355H18.7176Z" fill="#EBEBEB"/>
<path d="M50 106.086L49.9453 106.1L36.0516 102.349L35.1633 92.3993H22.6398L24.3875 111.988L49.9426 119.081L50 119.066V106.086Z" fill="#EBEBEB"/>
<path d="M23.6266 0H38.7359V6.31875H29.9453V12.6375H38.7367V18.9559H23.6266V0Z" fill="black"/>
<path d="M41.7582 0H56.868V5.49453H48.077V6.59336H56.868V19.2309H41.7586V13.4609H50.5496V12.3621H41.7578V0H41.7582Z" fill="black"/>
<path d="M59.8903 0H75V5.49453H66.209V6.59336H75V19.2309H59.8903V13.4609H68.6813V12.3621H59.8907V0H59.8903Z" fill="black"/>
<path d="M78.9559 73.6859L81.2078 48.4355H49.957V60.9109H67.5359L66.4008 73.6859H49.957V86.1613H65.3191L63.8707 102.341L49.9566 106.096V119.075L75.532 111.987L75.7195 109.88L78.6516 77.0359L78.9559 73.6859Z" fill="white"/>
</svg>
