<svg width="100" height="90" viewBox="0 0 100 90" fill="none" xmlns="http://www.w3.org/2000/svg">
<rect width="100" height="89.0625" fill="#8F3CE2"/>
<path d="M82.2199 28.8376C81.1557 28.4724 80.0824 28.1342 79.0012 27.8231C79.1828 27.0809 79.35 26.3477 79.4984 25.6274C81.9352 13.7989 80.3422 4.26959 74.9012 1.13209C69.6844 -1.87573 61.1527 1.2606 52.5363 8.75943C51.6871 9.49979 50.8568 10.2615 50.0461 11.0438C49.5034 10.5236 48.9511 10.0135 48.3895 9.51373C39.359 1.49576 30.3074 -1.88354 24.8723 1.26294C19.6602 4.28013 18.1168 13.2383 20.3105 24.4485C20.5288 25.5587 20.7752 26.6633 21.0496 27.761C19.7684 28.1251 18.532 28.5126 17.3488 28.9251C6.76133 32.6165 0 38.4012 0 44.4016C0 50.5989 7.25859 56.8149 18.2859 60.584C19.1799 60.8884 20.0814 61.1703 20.9895 61.4297C20.6945 62.612 20.4327 63.8023 20.2043 64.9993C18.1129 76.0149 19.7461 84.7614 24.9441 87.7594C30.3129 90.8555 39.3238 87.6735 48.0977 80.0036C48.8091 79.38 49.5049 78.7388 50.1844 78.0805C51.0623 78.9276 51.9637 79.7501 52.8875 80.5469C61.3867 87.8602 69.7805 90.8133 74.9734 87.8071C80.3371 84.702 82.0805 75.3059 79.8172 63.8743C79.6389 62.9787 79.439 62.0875 79.2176 61.2016C79.8504 61.0141 80.4715 60.8212 81.077 60.6204C92.541 56.8223 100 50.6817 100 44.4016C100 38.3793 93.0203 32.5555 82.2199 28.8376ZM79.7336 56.5657C79.1867 56.7465 78.6258 56.9212 78.0539 57.0911C76.7883 53.0844 75.0805 48.8243 72.9902 44.4223C74.9848 40.1254 76.627 35.9196 77.857 31.9391C78.8801 32.2352 79.8727 32.5473 80.8297 32.8766C90.0836 36.0626 95.7281 40.7723 95.7281 44.4016C95.7281 48.2672 89.632 53.2856 79.7336 56.5657ZM75.6266 64.704C76.6273 69.7587 76.7699 74.329 76.107 77.902C75.5117 81.1126 74.3141 83.2528 72.8328 84.1102C69.6816 85.9344 62.9422 83.5633 55.6738 77.3087C54.8146 76.5678 53.9761 75.8032 53.1594 75.0157C55.9773 71.934 58.7934 68.3516 61.5418 64.3727C66.3762 63.9438 70.9434 63.2422 75.0852 62.2848C75.2891 63.1079 75.4703 63.9149 75.6266 64.704ZM34.0922 83.795C31.0133 84.8821 28.5609 84.9133 27.0785 84.0587C23.9242 82.2395 22.6129 75.2165 24.4016 65.7962C24.6142 64.683 24.8576 63.5759 25.1316 62.4762C29.2277 63.3825 33.7617 64.034 38.6074 64.427C41.3746 68.3204 44.2719 71.8989 47.1918 75.0325C46.5713 75.6329 45.9361 76.218 45.2867 76.7872C41.4066 80.1786 37.5187 82.5848 34.0922 83.795ZM19.668 56.5419C14.7918 54.8751 10.7648 52.709 8.00469 50.3454C5.52422 48.2215 4.27227 46.1126 4.27227 44.4016C4.27227 40.7602 9.70078 36.1157 18.7551 32.959C19.8539 32.5762 21.0039 32.2149 22.1973 31.8758C23.4488 35.9461 25.0902 40.202 27.0711 44.5055C25.0645 48.8727 23.3996 53.1965 22.1359 57.3149C21.3071 57.0775 20.4842 56.8197 19.668 56.5419ZM24.5031 23.6278C22.6238 14.0235 23.8719 6.77857 27.0129 4.96021C30.3582 3.02349 37.7559 5.78482 45.5531 12.7083C46.0616 13.1608 46.5618 13.6224 47.0535 14.093C44.148 17.2129 41.2773 20.7649 38.5348 24.6352C33.8316 25.0711 29.3297 25.7711 25.1906 26.709C24.9356 25.688 24.7064 24.6607 24.5031 23.6282V23.6278ZM67.6387 34.2794C66.661 32.5906 65.6471 30.9232 64.5977 29.2782C67.7883 29.6817 70.8453 30.2172 73.716 30.8719C72.8543 33.6344 71.7801 36.5223 70.5156 39.4833C69.5914 37.7296 68.6322 35.9947 67.6387 34.2794ZM50.048 17.1461C52.0184 19.2809 53.9918 21.6641 55.9328 24.2501C51.9953 24.0641 48.0512 24.0633 44.1137 24.2477C46.0566 21.6856 48.0469 19.3055 50.048 17.1461ZM32.3445 34.3086C31.3634 36.0102 30.4221 37.7343 29.5215 39.4797C28.2777 36.5294 27.2133 33.6282 26.3441 30.8266C29.1973 30.1883 32.2398 29.6665 35.4102 29.2704C34.349 30.9254 33.3268 32.6052 32.3445 34.3083V34.3086ZM35.5012 59.8368C32.2258 59.4712 29.1375 58.9762 26.2852 58.3551C27.168 55.5036 28.2559 52.5407 29.5266 49.527C30.4308 51.2737 31.376 52.9989 32.3613 54.7012C33.3746 56.4512 34.4238 58.1653 35.5012 59.8368ZM50.166 71.9579C48.141 69.7735 46.1215 67.3567 44.1492 64.7575C46.0641 64.8325 48.016 64.8708 50 64.8708C52.0383 64.8708 54.0531 64.8251 56.0363 64.7368C54.0891 67.3829 52.123 69.8032 50.166 71.9579ZM70.5559 49.3731C71.8926 52.42 73.0191 55.3672 73.9137 58.17C71.0145 58.8317 67.884 59.3645 64.5855 59.7602C65.6425 58.0846 66.666 56.3882 67.6555 54.6719C68.6615 52.9274 69.6285 51.1607 70.5559 49.3731ZM63.9551 52.5376C62.4403 55.1689 60.8404 57.7504 59.1578 60.2778C56.11 60.4937 53.0555 60.6009 50 60.5993C46.8879 60.5993 43.8609 60.5024 40.9461 60.3133C39.2196 57.7918 37.5892 55.2058 36.0582 52.561H36.0586C34.5348 49.9302 33.1115 47.2424 31.7918 44.5036C33.1082 41.7641 34.5272 39.0751 36.0457 36.4422L36.0453 36.4426C37.5633 33.8091 39.1807 31.2342 40.8941 28.7235C43.868 28.4985 46.9176 28.3813 49.9996 28.3813H50C53.0961 28.3813 56.1496 28.4997 59.1227 28.7262C60.8188 31.2332 62.4259 33.7993 63.941 36.4196C65.4646 39.0466 66.9024 41.7225 68.252 44.443C66.9162 47.1914 65.483 49.8912 63.9551 52.5376ZM72.7676 4.83287C76.116 6.76412 77.4184 14.552 75.3145 24.7649C75.1801 25.4165 75.0293 26.0801 74.8652 26.7532C70.716 25.7954 66.2109 25.0833 61.4941 24.6407C58.7465 20.7278 55.8992 17.1704 53.041 14.0907C53.7901 13.3686 54.557 12.6653 55.341 11.9813C62.7238 5.55669 69.6238 3.01998 72.7676 4.83287ZM50 35.4719C54.9316 35.4719 58.9297 39.47 58.9297 44.4016C58.9297 49.3333 54.9316 53.3313 50 53.3313C45.0684 53.3313 41.0703 49.3333 41.0703 44.4016C41.0703 39.47 45.0684 35.4719 50 35.4719Z" fill="#00D8FF"/>
</svg>
