<svg width="219" height="92" viewBox="0 0 219 92" fill="none" xmlns="http://www.w3.org/2000/svg">
<rect x="0.718818" y="0.718818" width="217.562" height="52.2341" stroke="#888888" stroke-width="1.43764"/>
<path d="M35.5965 15.4672L41.2872 33.2579L46.9778 15.4672H50.512V37.2713H47.7715V28.7803L48.0261 20.2743L42.3205 37.2713H40.2239L34.5482 20.3342L34.8028 28.7803V37.2713H32.0623V15.4672H35.5965ZM71.816 31.5807H64.4481L62.7559 37.2713H59.9405L66.9639 15.4672H69.3151L76.3535 37.2713H73.5381L71.816 31.5807ZM65.1669 29.2146H71.1121L68.132 19.3009L65.1669 29.2146ZM96.2498 17.8333H90.5142V37.2713H87.7737V17.8333H82.0531V15.4672H96.2498V17.8333ZM119.875 37.2713H117.12V27.1929H108.344V37.2713H105.603V15.4672H108.344V24.8418H117.12V15.4672H119.875V37.2713ZM141.209 27.1929H133.497V34.9202H142.482V37.2713H130.756V15.4672H142.332V17.8333H133.497V24.8418H141.209V27.1929ZM165.134 15.4672V30.9667C165.114 33.0333 164.515 34.6506 163.337 35.8187C162.158 36.9868 160.516 37.5708 158.41 37.5708C156.253 37.5708 154.606 37.0018 153.468 35.8636C152.33 34.7155 151.751 33.0832 151.731 30.9667V15.4672H154.456V30.8619C154.456 32.3295 154.766 33.4277 155.385 34.1565C156.014 34.8753 157.022 35.2347 158.41 35.2347C159.807 35.2347 160.816 34.8753 161.435 34.1565C162.064 33.4277 162.378 32.3295 162.378 30.8619V15.4672H165.134ZM185.015 31.7604C185.015 30.6722 184.72 29.8386 184.131 29.2595C183.542 28.6805 182.479 28.1164 180.942 27.5673C179.404 27.0182 178.226 26.4441 177.407 25.8451C176.599 25.2361 175.99 24.5472 175.58 23.7785C175.181 22.9998 174.981 22.1113 174.981 21.1129C174.981 19.3857 175.555 17.9631 176.704 16.8449C177.862 15.7267 179.374 15.1677 181.241 15.1677C182.519 15.1677 183.657 15.4572 184.655 16.0362C185.654 16.6053 186.423 17.399 186.962 18.4173C187.501 19.4357 187.77 20.5538 187.77 21.7718H185.015C185.015 20.424 184.69 19.3807 184.041 18.642C183.393 17.9032 182.459 17.5338 181.241 17.5338C180.133 17.5338 179.274 17.8433 178.665 18.4623C178.056 19.0812 177.752 19.9498 177.752 21.068C177.752 21.9865 178.081 22.7552 178.74 23.3742C179.399 23.9932 180.417 24.5472 181.795 25.0364C183.942 25.7453 185.474 26.6188 186.393 27.6571C187.321 28.6954 187.785 30.0532 187.785 31.7304C187.785 33.4975 187.211 34.9152 186.063 35.9834C184.915 37.0417 183.353 37.5708 181.376 37.5708C180.108 37.5708 178.935 37.2963 177.857 36.7472C176.788 36.1881 175.945 35.4094 175.326 34.411C174.717 33.4027 174.412 32.2496 174.412 30.9517H177.168C177.168 32.2995 177.542 33.3478 178.291 34.0966C179.05 34.8453 180.078 35.2197 181.376 35.2197C182.584 35.2197 183.492 34.9102 184.101 34.2912C184.71 33.6722 185.015 32.8286 185.015 31.7604Z" fill="#888888"/>
<path d="M27.652 70.7514V77.4005H26.3716V61.0473H31.1226C32.5677 61.0473 33.7058 61.4816 34.537 62.3502C35.3681 63.2188 35.7837 64.4131 35.7837 65.9331C35.7837 67.483 35.3793 68.6735 34.5707 69.5047C33.7695 70.3358 32.6126 70.7514 31.1001 70.7514H27.652ZM27.652 69.5496H31.1226C32.2008 69.5496 33.0319 69.2389 33.616 68.6174C34.2075 67.9884 34.5033 67.1011 34.5033 65.9555C34.5033 64.8099 34.2038 63.9076 33.6048 63.2487C33.0132 62.5898 32.1896 62.2603 31.1338 62.2603H27.652V69.5496ZM51.7886 77.4005H50.5082V61.0473H51.7886V77.4005ZM77.6773 77.4005H76.3969L68.6808 63.4733V77.4005H67.3892V61.0473H68.6808L76.4081 74.9969V61.0473H77.6773V77.4005ZM103.319 77.4005H102.027V69.5721H94.3449V77.4005H93.0645V61.0473H94.3449V68.3815H102.027V61.0473H103.319V77.4005ZM126.344 69.5721H119.998V76.2099H127.298V77.4005H118.717V61.0473H127.242V62.2603H119.998V68.3815H126.344V69.5721ZM143.168 77.4005H141.888V61.0473H143.168V77.4005ZM163.857 70.5941H160.038V77.4005H158.747V61.0473H163.228C164.718 61.0473 165.871 61.4741 166.687 62.3277C167.511 63.1738 167.923 64.3531 167.923 65.8657C167.923 66.9214 167.668 67.8499 167.159 68.6511C166.65 69.4448 165.965 69.9951 165.104 70.3021L168.507 77.2544V77.4005H167.136L163.857 70.5941ZM160.038 69.4036H163.453C164.418 69.4036 165.19 69.0741 165.766 68.4152C166.343 67.7488 166.631 66.899 166.631 65.8657C166.631 64.72 166.332 63.8328 165.733 63.2038C165.134 62.5748 164.295 62.2603 163.217 62.2603H160.038V69.4036ZM193.059 70.9985C193.059 73.11 192.595 74.7423 191.666 75.8954C190.745 77.0485 189.45 77.6251 187.78 77.6251C186.125 77.6251 184.826 77.0485 183.883 75.8954C182.947 74.7423 182.475 73.1212 182.468 71.0322V67.4718C182.468 65.3677 182.936 63.7354 183.871 62.5748C184.807 61.4067 186.103 60.8227 187.758 60.8227C189.435 60.8227 190.738 61.4067 191.666 62.5748C192.595 63.7429 193.059 65.3865 193.059 67.5055V70.9985ZM191.767 67.4493C191.767 65.6598 191.423 64.3157 190.734 63.4172C190.045 62.5187 189.053 62.0694 187.758 62.0694C186.507 62.0694 185.53 62.5112 184.826 63.3947C184.122 64.2708 183.763 65.5849 183.748 67.337V70.9985C183.748 72.7955 184.104 74.147 184.815 75.0531C185.526 75.9516 186.515 76.4008 187.78 76.4008C189.083 76.4008 190.071 75.9516 190.745 75.0531C191.427 74.1545 191.767 72.803 191.767 70.9985V67.4493Z" fill="#888888"/>
</svg>
