<svg width="100" height="100" viewBox="0 0 100 100" fill="none" xmlns="http://www.w3.org/2000/svg">
<path d="M0 0H100V100H0V0Z" fill="#F7DF1E"/>
<path d="M26.2937 83.5672L33.9461 78.936C35.4226 81.5535 36.7656 83.7684 39.9871 83.7684C43.075 83.7684 45.0223 82.5606 45.0223 77.8621V45.9098H54.4195V77.9949C54.4195 87.7281 48.7141 92.1586 40.3898 92.1586C32.8723 92.1586 28.5086 88.2653 26.2934 83.5664" fill="black"/>
<path d="M59.5238 82.5602L67.1754 78.1301C69.1898 81.4196 71.8078 83.836 76.4391 83.836C80.3332 83.836 82.816 81.8891 82.816 79.2039C82.816 75.9821 80.2652 74.8407 75.9691 72.9618L73.6203 71.954C66.8402 69.0684 62.343 65.4434 62.343 57.7911C62.343 50.7426 67.7129 45.3723 76.1039 45.3723C82.0781 45.3723 86.3742 47.4536 89.4617 52.8907L82.1445 57.5899C80.5332 54.7036 78.7887 53.5625 76.1035 53.5625C73.3512 53.5625 71.6059 55.3079 71.6059 57.5899C71.6059 60.409 73.3512 61.5508 77.3785 63.2961L79.7277 64.3028C87.716 67.7266 92.2133 71.2168 92.2133 79.07C92.2133 87.5286 85.568 92.1598 76.6402 92.1598C67.9141 92.1598 62.2754 87.9981 59.5234 82.5606" fill="black"/>
</svg>
